<svg width="13" height="13" viewBox="0 0 13 13" fill="none" xmlns="http://www.w3.org/2000/svg">
<path d="M11.6538 0.829407H3.65381C3.5212 0.829407 3.39402 0.882085 3.30026 0.975853C3.20649 1.06962 3.15381 1.1968 3.15381 1.32941V3.82941H0.653809C0.5212 3.82941 0.394023 3.88209 0.300255 3.97585C0.206487 4.06962 0.153809 4.1968 0.153809 4.32941V12.3294C0.153809 12.462 0.206487 12.5892 0.300255 12.683C0.394023 12.7767 0.5212 12.8294 0.653809 12.8294H8.65381C8.78642 12.8294 8.91359 12.7767 9.00736 12.683C9.10113 12.5892 9.15381 12.462 9.15381 12.3294V9.82941H11.6538C11.7864 9.82941 11.9136 9.77673 12.0074 9.68296C12.1011 9.58919 12.1538 9.46202 12.1538 9.32941V1.32941C12.1538 1.1968 12.1011 1.06962 12.0074 0.975853C11.9136 0.882085 11.7864 0.829407 11.6538 0.829407ZM8.15381 11.8294H1.15381V4.82941H8.15381V11.8294ZM11.1538 8.82941H9.15381V4.32941C9.15381 4.1968 9.10113 4.06962 9.00736 3.97585C8.91359 3.88209 8.78642 3.82941 8.65381 3.82941H4.15381V1.82941H11.1538V8.82941Z" fill="#C0C0C0"/>
</svg>
