<svg width="28" height="28" viewBox="0 0 28 28" fill="none" xmlns="http://www.w3.org/2000/svg">
<path d="M0.40332 8.44149C0.40332 6.98734 1.58214 5.80851 3.0363 5.80851C4.49045 5.80851 5.66928 6.98734 5.66928 8.44149C5.66928 9.89564 4.49045 11.0745 3.0363 11.0745C1.58214 11.0745 0.40332 9.89564 0.40332 8.44149Z" fill="#F35034"/>
<path d="M0.40332 14C0.40332 12.5458 1.58214 11.367 3.0363 11.367C4.49045 11.367 5.66928 12.5458 5.66928 14C5.66928 15.4542 4.49045 16.633 3.0363 16.633C1.58214 16.633 0.40332 15.4542 0.40332 14Z" fill="#F35034"/>
<path d="M0.40332 19.5585C0.40332 18.1044 1.58214 16.9255 3.0363 16.9255C4.49045 16.9255 5.66928 18.1044 5.66928 19.5585C5.66928 21.0127 4.49045 22.1915 3.0363 22.1915C1.58214 22.1915 0.40332 21.0127 0.40332 19.5585Z" fill="#F35034"/>
<path d="M5.96183 2.88298C5.96183 1.42882 7.14066 0.25 8.59481 0.25C10.049 0.25 11.2278 1.42882 11.2278 2.88298C11.2278 4.33713 10.049 5.51596 8.59481 5.51596C7.14066 5.51596 5.96183 4.33713 5.96183 2.88298Z" fill="#F35034"/>
<path d="M5.96183 8.44149C5.96183 6.98734 7.14066 5.80851 8.59481 5.80851C10.049 5.80851 11.2278 6.98734 11.2278 8.44149C11.2278 9.89564 10.049 11.0745 8.59481 11.0745C7.14066 11.0745 5.96183 9.89564 5.96183 8.44149Z" fill="#F35034"/>
<path d="M5.96183 14C5.96183 12.5458 7.14066 11.367 8.59481 11.367C10.049 11.367 11.2278 12.5458 11.2278 14C11.2278 15.4542 10.049 16.633 8.59481 16.633C7.14066 16.633 5.96183 15.4542 5.96183 14Z" fill="#F35034"/>
<path d="M5.96183 19.5585C5.96183 18.1044 7.14066 16.9255 8.59481 16.9255C10.049 16.9255 11.2278 18.1044 11.2278 19.5585C11.2278 21.0127 10.049 22.1915 8.59481 22.1915C7.14066 22.1915 5.96183 21.0127 5.96183 19.5585Z" fill="#F35034"/>
<path d="M5.96183 25.117C5.96183 23.6629 7.14066 22.484 8.59481 22.484C10.049 22.484 11.2278 23.6629 11.2278 25.117C11.2278 26.5712 10.049 27.75 8.59481 27.75C7.14066 27.75 5.96183 26.5712 5.96183 25.117Z" fill="#F35034"/>
<path d="M11.5203 2.88298C11.5203 1.42882 12.6992 0.25 14.1533 0.25C15.6075 0.25 16.7863 1.42882 16.7863 2.88298C16.7863 4.33713 15.6075 5.51596 14.1533 5.51596C12.6992 5.51596 11.5203 4.33713 11.5203 2.88298Z" fill="#F35034"/>
<path d="M11.5203 8.44149C11.5203 6.98734 12.6992 5.80851 14.1533 5.80851C15.6075 5.80851 16.7863 6.98734 16.7863 8.44149C16.7863 9.89564 15.6075 11.0745 14.1533 11.0745C12.6992 11.0745 11.5203 9.89564 11.5203 8.44149Z" fill="#F35034"/>
<path d="M11.5203 14C11.5203 12.5458 12.6992 11.367 14.1533 11.367C15.6075 11.367 16.7863 12.5458 16.7863 14C16.7863 15.4542 15.6075 16.633 14.1533 16.633C12.6992 16.633 11.5203 15.4542 11.5203 14Z" fill="#F35034"/>
<path d="M11.5203 19.5585C11.5203 18.1044 12.6992 16.9255 14.1533 16.9255C15.6075 16.9255 16.7863 18.1044 16.7863 19.5585C16.7863 21.0127 15.6075 22.1915 14.1533 22.1915C12.6992 22.1915 11.5203 21.0127 11.5203 19.5585Z" fill="#F35034"/>
<path d="M11.5203 25.117C11.5203 23.6629 12.6992 22.484 14.1533 22.484C15.6075 22.484 16.7863 23.6629 16.7863 25.117C16.7863 26.5712 15.6075 27.75 14.1533 27.75C12.6992 27.75 11.5203 26.5712 11.5203 25.117Z" fill="#F35034"/>
<path d="M17.0789 2.88298C17.0789 1.42882 18.2577 0.25 19.7118 0.25C21.166 0.25 22.3448 1.42882 22.3448 2.88298C22.3448 4.33713 21.166 5.51596 19.7118 5.51596C18.2577 5.51596 17.0789 4.33713 17.0789 2.88298Z" fill="#F35034"/>
<path d="M17.0789 8.44149C17.0789 6.98734 18.2577 5.80851 19.7118 5.80851C21.166 5.80851 22.3448 6.98734 22.3448 8.44149C22.3448 9.89564 21.166 11.0745 19.7118 11.0745C18.2577 11.0745 17.0789 9.89564 17.0789 8.44149Z" fill="#F35034"/>
<path d="M17.0789 14C17.0789 12.5458 18.2577 11.367 19.7118 11.367C21.166 11.367 22.3448 12.5458 22.3448 14C22.3448 15.4542 21.166 16.633 19.7118 16.633C18.2577 16.633 17.0789 15.4542 17.0789 14Z" fill="#F35034"/>
<path d="M17.0789 19.5585C17.0789 18.1044 18.2577 16.9255 19.7118 16.9255C21.166 16.9255 22.3448 18.1044 22.3448 19.5585C22.3448 21.0127 21.166 22.1915 19.7118 22.1915C18.2577 22.1915 17.0789 21.0127 17.0789 19.5585Z" fill="#F35034"/>
<path d="M17.0789 25.117C17.0789 23.6629 18.2577 22.484 19.7118 22.484C21.166 22.484 22.3448 23.6629 22.3448 25.117C22.3448 26.5712 21.166 27.75 19.7118 27.75C18.2577 27.75 17.0789 26.5712 17.0789 25.117Z" fill="#F35034"/>
<path d="M22.6374 8.44149C22.6374 6.98734 23.8162 5.80851 25.2703 5.80851C26.7245 5.80851 27.9033 6.98734 27.9033 8.44149C27.9033 9.89564 26.7245 11.0745 25.2703 11.0745C23.8162 11.0745 22.6374 9.89564 22.6374 8.44149Z" fill="#F35034"/>
<path d="M22.6374 14C22.6374 12.5458 23.8162 11.367 25.2703 11.367C26.7245 11.367 27.9033 12.5458 27.9033 14C27.9033 15.4542 26.7245 16.633 25.2703 16.633C23.8162 16.633 22.6374 15.4542 22.6374 14Z" fill="#F35034"/>
<path d="M22.6374 19.5585C22.6374 18.1044 23.8162 16.9255 25.2703 16.9255C26.7245 16.9255 27.9033 18.1044 27.9033 19.5585C27.9033 21.0127 26.7245 22.1915 25.2703 22.1915C23.8162 22.1915 22.6374 21.0127 22.6374 19.5585Z" fill="#F35034"/>
</svg>
