<svg width="17" height="12" viewBox="0 0 17 12" fill="none" xmlns="http://www.w3.org/2000/svg">
<path d="M0.15332 1C0.15332 0.734784 0.258677 0.48043 0.446214 0.292893C0.63375 0.105357 0.888104 0 1.15332 0H15.1533C15.4185 0 15.6729 0.105357 15.8604 0.292893C16.048 0.48043 16.1533 0.734784 16.1533 1C16.1533 1.26522 16.048 1.51957 15.8604 1.70711C15.6729 1.89464 15.4185 2 15.1533 2H1.15332C0.888104 2 0.63375 1.89464 0.446214 1.70711C0.258677 1.51957 0.15332 1.26522 0.15332 1ZM0.15332 6C0.15332 5.73478 0.258677 5.48043 0.446214 5.29289C0.63375 5.10536 0.888104 5 1.15332 5H15.1533C15.4185 5 15.6729 5.10536 15.8604 5.29289C16.048 5.48043 16.1533 5.73478 16.1533 6C16.1533 6.26522 16.048 6.51957 15.8604 6.70711C15.6729 6.89464 15.4185 7 15.1533 7H1.15332C0.888104 7 0.63375 6.89464 0.446214 6.70711C0.258677 6.51957 0.15332 6.26522 0.15332 6ZM0.15332 11C0.15332 10.7348 0.258677 10.4804 0.446214 10.2929C0.63375 10.1054 0.888104 10 1.15332 10H15.1533C15.4185 10 15.6729 10.1054 15.8604 10.2929C16.048 10.4804 16.1533 10.7348 16.1533 11C16.1533 11.2652 16.048 11.5196 15.8604 11.7071C15.6729 11.8946 15.4185 12 15.1533 12H1.15332C0.888104 12 0.63375 11.8946 0.446214 11.7071C0.258677 11.5196 0.15332 11.2652 0.15332 11Z" fill="white"/>
</svg>
