<svg width="9" height="9" viewBox="0 0 9 9" fill="none" xmlns="http://www.w3.org/2000/svg">
<path d="M8.03919 5.1428H5.29228V7.88972C5.29228 8.03542 5.2344 8.17516 5.13137 8.27819C5.02834 8.38122 4.8886 8.4391 4.7429 8.4391C4.59719 8.4391 4.45745 8.38122 4.35442 8.27819C4.25139 8.17516 4.19351 8.03542 4.19351 7.88972V5.1428H1.4466C1.30089 5.1428 1.16116 5.08492 1.05813 4.98189C0.955098 4.87886 0.897217 4.73913 0.897217 4.59342C0.897217 4.44772 0.955098 4.30798 1.05813 4.20495C1.16116 4.10192 1.30089 4.04404 1.4466 4.04404H4.19351V1.29712C4.19351 1.15142 4.25139 1.01168 4.35442 0.908652C4.45745 0.805623 4.59719 0.747742 4.7429 0.747742C4.8886 0.747742 5.02834 0.805623 5.13137 0.908652C5.2344 1.01168 5.29228 1.15142 5.29228 1.29712V4.04404H8.03919C8.1849 4.04404 8.32464 4.10192 8.42766 4.20495C8.53069 4.30798 8.58857 4.44772 8.58857 4.59342C8.58857 4.73913 8.53069 4.87886 8.42766 4.98189C8.32464 5.08492 8.1849 5.1428 8.03919 5.1428Z" fill="white"/>
</svg>
